<svg width="350" height="300" viewBox="0 0 323 290" fill="none" xmlns="http://www.w3.org/2000/svg">
<rect width="322.222" height="290" rx="25" fill="#E6E6E6"/>
<rect width="89.6059" height="70.6718" transform="translate(116 95)" fill="#E6E6E6"/>
<path d="M161.074 165.665C147.948 165.665 134.822 165.665 121.695 165.665C121.054 165.665 120.405 165.665 119.761 165.606C116.474 165.331 115.153 163.35 116.555 160.671C117.771 158.358 119.097 156.104 120.385 153.816C126.466 143.041 132.546 132.269 138.626 121.498C138.814 121.169 139.011 120.84 139.229 120.525C140.76 118.329 143.247 118.019 145.207 119.914C146.589 121.24 147.758 122.73 148.991 124.167C155.255 131.494 161.52 138.825 167.785 146.159C170.521 149.35 173.967 149.524 177.182 146.654C178.776 145.229 180.335 143.767 181.949 142.354C184.859 139.806 188.162 139.96 190.539 142.931C195.309 148.893 199.961 154.934 204.634 160.955C205 161.428 205.279 161.949 205.464 162.499C205.917 163.882 205.276 164.995 203.709 165.364C202.726 165.574 201.717 165.671 200.707 165.653C187.503 165.673 174.292 165.677 161.074 165.665Z" fill="#D4D2E3"/>
<path d="M190.511 106.627C190.508 108.927 189.742 111.174 188.31 113.084C186.878 114.993 184.845 116.479 182.469 117.353C180.092 118.227 177.479 118.45 174.961 117.993C172.443 117.536 170.133 116.42 168.324 114.787C166.516 113.154 165.289 111.077 164.801 108.819C164.313 106.561 164.585 104.224 165.582 102.105C166.579 99.9856 168.257 98.1789 170.403 96.9141C172.548 95.6492 175.066 94.9832 177.635 95.0003C181.056 95.0392 184.323 96.2799 186.732 98.4549C189.14 100.63 190.498 103.565 190.511 106.627Z" fill="#D4D2E3"/>
</svg>
